<svg width="139" height="24" viewBox="0 0 139 24" fill="none" xmlns="http://www.w3.org/2000/svg">
<path d="M28.4419 2.09L22.3819 23H19.3219L14.4619 6.17L9.42187 23L6.39187 23.03L0.541868 2.09H3.45187L8.01187 19.82L13.0519 2.09H16.1119L20.9119 19.76L25.5019 2.09H28.4419ZM46.4294 14.15C46.4294 14.67 46.3994 15.22 46.3394 15.8H33.1994C33.2994 17.42 33.8494 18.69 34.8494 19.61C35.8694 20.51 37.0994 20.96 38.5394 20.96C39.7194 20.96 40.6994 20.69 41.4794 20.15C42.2794 19.59 42.8394 18.85 43.1594 17.93H46.0994C45.6594 19.51 44.7794 20.8 43.4594 21.8C42.1394 22.78 40.4994 23.27 38.5394 23.27C36.9794 23.27 35.5794 22.92 34.3394 22.22C33.1194 21.52 32.1594 20.53 31.4594 19.25C30.7594 17.95 30.4094 16.45 30.4094 14.75C30.4094 13.05 30.7494 11.56 31.4294 10.28C32.1094 9 33.0594 8.02 34.2794 7.34C35.5194 6.64 36.9394 6.29 38.5394 6.29C40.0994 6.29 41.4794 6.63 42.6794 7.31C43.8794 7.99 44.7994 8.93 45.4394 10.13C46.0994 11.31 46.4294 12.65 46.4294 14.15ZM43.6094 13.58C43.6094 12.54 43.3794 11.65 42.9194 10.91C42.4594 10.15 41.8294 9.58 41.0294 9.2C40.2494 8.8 39.3794 8.6 38.4194 8.6C37.0394 8.6 35.8594 9.04 34.8794 9.92C33.9194 10.8 33.3694 12.02 33.2294 13.58H43.6094ZM52.763 9.62C53.323 8.64 54.143 7.84 55.223 7.22C56.303 6.6 57.533 6.29 58.913 6.29C60.393 6.29 61.723 6.64 62.903 7.34C64.083 8.04 65.013 9.03 65.693 10.31C66.373 11.57 66.713 13.04 66.713 14.72C66.713 16.38 66.373 17.86 65.693 19.16C65.013 20.46 64.073 21.47 62.873 22.19C61.693 22.91 60.373 23.27 58.913 23.27C57.493 23.27 56.243 22.96 55.163 22.34C54.103 21.72 53.303 20.93 52.763 19.97V23H50.033V0.8H52.763V9.62ZM63.923 14.72C63.923 13.48 63.673 12.4 63.173 11.48C62.673 10.56 61.993 9.86 61.133 9.38C60.293 8.9 59.363 8.66 58.343 8.66C57.343 8.66 56.413 8.91 55.553 9.41C54.713 9.89 54.033 10.6 53.513 11.54C53.013 12.46 52.763 13.53 52.763 14.75C52.763 15.99 53.013 17.08 53.513 18.02C54.033 18.94 54.713 19.65 55.553 20.15C56.413 20.63 57.343 20.87 58.343 20.87C59.363 20.87 60.293 20.63 61.133 20.15C61.993 19.65 62.673 18.94 63.173 18.02C63.673 17.08 63.923 15.98 63.923 14.72ZM83.1764 2.09V4.31H77.4764V23H74.7464V4.31H69.0164V2.09H83.1764ZM101.537 14.15C101.537 14.67 101.507 15.22 101.447 15.8H88.3069C88.4069 17.42 88.9569 18.69 89.9569 19.61C90.9769 20.51 92.2069 20.96 93.6469 20.96C94.8269 20.96 95.8069 20.69 96.5869 20.15C97.3869 19.59 97.9469 18.85 98.2669 17.93H101.207C100.767 19.51 99.8869 20.8 98.5669 21.8C97.2469 22.78 95.6069 23.27 93.6469 23.27C92.0869 23.27 90.6869 22.92 89.4469 22.22C88.2269 21.52 87.2669 20.53 86.5669 19.25C85.8669 17.95 85.5169 16.45 85.5169 14.75C85.5169 13.05 85.8569 11.56 86.5369 10.28C87.2169 9 88.1669 8.02 89.3869 7.34C90.6269 6.64 92.0469 6.29 93.6469 6.29C95.2069 6.29 96.5869 6.63 97.7869 7.31C98.9869 7.99 99.9069 8.93 100.547 10.13C101.207 11.31 101.537 12.65 101.537 14.15ZM98.7169 13.58C98.7169 12.54 98.4869 11.65 98.0269 10.91C97.5669 10.15 96.9369 9.58 96.1369 9.2C95.3569 8.8 94.4869 8.6 93.5269 8.6C92.1469 8.6 90.9669 9.04 89.9869 9.92C89.0269 10.8 88.4769 12.02 88.3369 13.58H98.7169ZM104.12 14.75C104.12 13.05 104.46 11.57 105.14 10.31C105.82 9.03 106.76 8.04 107.96 7.34C109.18 6.64 110.57 6.29 112.13 6.29C114.15 6.29 115.81 6.78 117.11 7.76C118.43 8.74 119.3 10.1 119.72 11.84H116.78C116.5 10.84 115.95 10.05 115.13 9.47C114.33 8.89 113.33 8.6 112.13 8.6C110.57 8.6 109.31 9.14 108.35 10.22C107.39 11.28 106.91 12.79 106.91 14.75C106.91 16.73 107.39 18.26 108.35 19.34C109.31 20.42 110.57 20.96 112.13 20.96C113.33 20.96 114.33 20.68 115.13 20.12C115.93 19.56 116.48 18.76 116.78 17.72H119.72C119.28 19.4 118.4 20.75 117.08 21.77C115.76 22.77 114.11 23.27 112.13 23.27C110.57 23.27 109.18 22.92 107.96 22.22C106.76 21.52 105.82 20.53 105.14 19.25C104.46 17.97 104.12 16.47 104.12 14.75ZM131.523 6.26C132.763 6.26 133.883 6.53 134.883 7.07C135.883 7.59 136.663 8.38 137.223 9.44C137.803 10.5 138.093 11.79 138.093 13.31V23H135.393V13.7C135.393 12.06 134.983 10.81 134.163 9.95C133.343 9.07 132.223 8.63 130.803 8.63C129.363 8.63 128.213 9.08 127.353 9.98C126.513 10.88 126.093 12.19 126.093 13.91V23H123.363V0.8H126.093V8.9C126.633 8.06 127.373 7.41 128.313 6.95C129.273 6.49 130.343 6.26 131.523 6.26Z" fill="#377DFF"/>
</svg>
